HIERARCHY
ROOT Hips
{
 OFFSET 0.000000 0.000000 0.000000
 CHANNELS 6 Xposition Yposition Zposition Yrotation Xrotation Zrotation
 JOINT Chest
 {
  OFFSET 0.000000 9.585900 0.002600
  CHANNELS 3 Yrotation Xrotation Zrotation
  JOINT Chest2
  {
   OFFSET 0.000000 9.601200 -0.005300
   CHANNELS 3 Yrotation Xrotation Zrotation
   JOINT Chest3
   {
    OFFSET 0.000000 9.561800 0.000000
    CHANNELS 3 Yrotation Xrotation Zrotation
    JOINT Chest4
    {
     OFFSET 0.000000 9.552100 0.000000
     CHANNELS 3 Yrotation Xrotation Zrotation
     JOINT Neck
     {
      OFFSET 0.000000 14.453000 0.000000
      CHANNELS 3 Yrotation Xrotation Zrotation
      JOINT Head
      {
       OFFSET 0.000000 8.936500 -0.011300
       CHANNELS 3 Yrotation Xrotation Zrotation
       End Site
       {
        OFFSET 0.000000 17.073600 -0.006000
       }
      }
     }
     JOINT RightCollar
     {
      OFFSET -2.921100 9.558500 0.000000
      CHANNELS 3 Yrotation Xrotation Zrotation
      JOINT RightShoulder
      {
       OFFSET -13.519700 0.000000 0.000000
       CHANNELS 3 Yrotation Xrotation Zrotation
       JOINT RightElbow
       {
        OFFSET 0.000000 -29.696600 0.000000
        CHANNELS 3 Yrotation Xrotation Zrotation
        JOINT RightWrist
        {
         OFFSET 0.000000 -24.004700 0.000000
         CHANNELS 3 Yrotation Xrotation Zrotation
         End Site
         {
          OFFSET 0.000000 -17.728500 0.000000
         }
        }
       }
      }
     }
     JOINT LeftCollar
     {
      OFFSET 2.921100 9.558500 0.000000
      CHANNELS 3 Yrotation Xrotation Zrotation
      JOINT LeftShoulder
      {
       OFFSET 13.519700 0.000000 0.000000
       CHANNELS 3 Yrotation Xrotation Zrotation
       JOINT LeftElbow
       {
        OFFSET 0.000000 -29.696600 0.000000
        CHANNELS 3 Yrotation Xrotation Zrotation
        JOINT LeftWrist
        {
         OFFSET 0.000000 -24.004700 0.000000
         CHANNELS 3 Yrotation Xrotation Zrotation
         End Site
         {
          OFFSET 0.000000 -17.728500 0.000000
         }
        }
       }
      }
     }
    }
   }
  }
 }
 JOINT RightHip
 {
  OFFSET -7.771700 -0.012900 -0.001300
  CHANNELS 3 Yrotation Xrotation Zrotation
  JOINT RightKnee
  {
   OFFSET 0.000000 -40.869800 0.001200
   CHANNELS 3 Yrotation Xrotation Zrotation
   JOINT RightAnkle
   {
    OFFSET 0.000000 -39.717900 0.002100
    CHANNELS 3 Yrotation Xrotation Zrotation
    JOINT RightToe
    {
     OFFSET 0.000000 -4.965400 11.033500
     CHANNELS 3 Yrotation Xrotation Zrotation
     End Site
     {
      OFFSET 0.000000 -1.423100 5.872300
     }
    }
   }
  }
 }
 JOINT LeftHip
 {
  OFFSET 7.771700 -0.012900 -0.001300
  CHANNELS 3 Yrotation Xrotation Zrotation
  JOINT LeftKnee
  {
   OFFSET 0.000000 -40.869800 0.001200
   CHANNELS 3 Yrotation Xrotation Zrotation
   JOINT LeftAnkle
   {
    OFFSET 0.000000 -39.717900 0.002100
    CHANNELS 3 Yrotation Xrotation Zrotation
    JOINT LeftToe
    {
     OFFSET 0.000000 -4.965400 11.033500
     CHANNELS 3 Yrotation Xrotation Zrotation
     End Site
     {
      OFFSET 0.000000 -1.423100 5.872300
     }
    }
   }
  }
 }
}
MOTION
Frames: 14
Frame Time: 0.008333
0.000000 85.388000 0.000000 0.000000 -5.767877 0.000000 0.000000 11.653817 0.000000 0.000000 -5.885947 0.000000 0.000000 -0.000000 0.000000 0.000000 -0.000000 0.000000 0.000000 12.528835 0.000000 0.000000 0.711642 0.000000 0.000000 -0.000000 0.000000 0.000000 0.000000 -90.000000 0.000000 -2.309062 0.000000 0.000000 2.309062 0.000000 0.000000 -0.000000 0.000000 0.000000 -0.000000 90.000000 0.000000 -2.309062 0.000000 0.000000 2.309062 0.000000 0.000000 8.520406 0.000000 0.000000 1.905762 0.000000 -0.000000 -4.658285 0.000000 0.000000 -0.000000 0.000000 0.000000 8.520406 0.000000 0.000000 1.905762 0.000000 -0.000000 -4.658285 0.000000 0.000000 -0.000000 0.000000
-44.252622 50.987046 4.119472 164.068510 -17.366978 -2.543454 2.955969 13.783798 1.609800 0.244377 1.198377 0.081254 0.472055 2.054554 0.119981 2.618377 12.441474 1.137530 3.261296 16.755654 -3.446562 7.075744 -4.415584 -7.429099 5.936967 7.632166 -1.126866 14.118923 -30.381988 -15.307954 48.323898 -47.530318 -37.819707 9.754691 13.942275 -10.535987 -11.404209 -0.709390 -0.623271 -8.792955 -27.832652 9.040525 -45.484151 -35.713808 30.066600 -5.406114 17.117444 21.392936 6.588041 -63.020972 -0.012282 -92.801374 77.088734 -96.906082 -6.245068 -10.593028 8.416490 0.112606 0.215039 0.019763 -12.291466 -65.579722 26.467146 91.359354 78.264020 90.652526 -16.269651 -18.912809 -2.408960 -0.192187 -0.436411 -0.037499
-44.263343 50.987462 4.114333 164.109390 -17.329675 -2.569944 3.018234 13.796143 1.610723 0.202877 1.176412 0.095916 0.480963 2.051333 0.122206 2.696373 12.450594 1.131822 3.135988 16.716200 -3.396449 6.939127 -4.469570 -7.351558 5.873227 7.525875 -1.025366 13.921473 -30.239023 -15.026454 47.889713 -46.738867 -37.389258 9.481001 13.855309 -11.318757 -11.462148 -0.706493 -0.609855 -8.651775 -27.807820 9.000212 -45.163700 -35.969848 29.830439 -5.187795 16.728139 21.786740 6.531798 -63.062405 -0.052558 -92.931432 77.139440 -96.984383 -6.242558 -10.601284 8.383499 0.124549 0.201594 0.016253 -12.106922 -65.680282 26.252398 91.306776 78.241056 90.722792 -16.249966 -18.883575 -2.409052 -0.210060 -0.453923 -0.045887
-44.276544 50.988274 4.105778 164.139212 -17.300571 -2.585768 3.066433 13.799085 1.611171 0.251017 1.195700 0.082380 0.425626 2.022334 0.142417 2.742984 12.448932 1.134339 3.043009 16.689129 -3.356174 6.795421 -4.518939 -7.273459 5.838065 7.423460 -0.937306 13.700746 -30.092599 -14.745395 47.320686 -45.995478 -36.803478 9.158117 13.711603 -12.111992 -11.487673 -0.698886 -0.614051 -8.502856 -27.778928 8.953111 -44.860995 -36.215471 29.597734 -4.998744 16.373092 22.112416 6.476369 -63.093473 -0.088288 -93.046059 77.186988 -97.055232 -6.243354 -10.618107 8.338095 0.136000 0.200552 0.030226 -12.087162 -65.722742 26.210980 91.337951 78.230362 90.773004 -16.292702 -18.874199 -2.391114 -0.229915 -0.462489 -0.049417
-44.289112 50.989167 4.096255 164.174619 -17.271355 -2.613991 3.099518 13.792233 1.625523 0.253567 1.194722 0.082726 0.429953 2.020802 0.142967 2.770601 12.440940 1.140350 2.964051 16.670721 -3.325775 6.653714 -4.560680 -7.192113 5.814150 7.334015 -0.866317 13.482871 -29.953812 -14.467597 46.626171 -45.282139 -36.081845 8.797053 13.510467 -12.926681 -11.476864 -0.679930 -0.641308 -8.379301 -27.747074 8.923182 -44.587447 -36.446179 29.381688 -4.836115 16.056600 22.364969 6.386676 -63.124078 -0.080909 -93.152966 77.213935 -97.121268 -6.256539 -10.637910 8.282304 0.174124 0.196819 0.047014 -11.988425 -65.784839 26.090770 91.300823 78.208116 90.804106 -16.318842 -18.857802 -2.373732 -0.252896 -0.479882 -0.052125
-44.297552 50.990867 4.085237 164.218560 -17.252620 -2.670947 3.117965 13.787535 1.669215 0.273912 1.198382 0.078991 0.434665 2.018943 0.143633 2.800967 12.431611 1.147183 2.886554 16.657814 -3.294666 6.505772 -4.594182 -7.110243 5.791365 7.240178 -0.793015 13.277129 -29.807381 -14.209611 45.817500 -44.582450 -35.239771 8.413610 13.248957 -13.763233 -11.495812 -0.661064 -0.660612 -8.234233 -27.703666 8.896023 -44.346166 -36.674781 29.183947 -4.698212 15.783441 22.553404 6.250567 -63.145113 -0.001277 -93.260318 77.205167 -97.182988 -6.295731 -10.651614 8.228133 0.244415 0.193017 0.077742 -11.959749 -65.829839 26.035651 91.286811 78.181609 90.851434 -16.308362 -18.842912 -2.357657 -0.311112 -0.484120 -0.072475
-44.311403 50.992095 4.073648 164.262589 -17.223077 -2.697028 3.094895 13.763624 1.681124 0.329732 1.211122 0.066215 0.439638 2.016296 0.144147 2.833310 12.419875 1.153274 2.801104 16.649706 -3.258044 6.363920 -4.618502 -7.035990 5.773962 7.141449 -0.714028 13.096746 -29.653820 -13.978070 44.905313 -43.870619 -34.289306 8.022052 12.907840 -14.622465 -11.524063 -0.634964 -0.682189 -8.101881 -27.650683 8.896376 -44.143774 -36.915010 29.009417 -4.590514 15.561179 22.688451 6.118205 -63.174874 0.020545 -93.379192 77.226835 -97.274249 -6.287458 -10.678341 8.178344 0.270891 0.189852 0.089490 -11.974066 -65.870036 26.013346 91.324516 78.122535 90.882025 -16.315169 -18.815582 -2.324029 -0.283045 -0.471803 -0.091866
-44.326437 50.993596 4.061815 164.302268 -17.189215 -2.711852 3.129057 13.748496 1.683438 0.333975 1.209406 0.063343 0.424245 2.008968 0.150229 2.883657 12.410066 1.149240 2.742472 16.644590 -3.233442 6.198099 -4.637411 -6.938182 5.763625 7.036451 -0.625596 12.962646 -29.494973 -13.779998 43.904441 -43.121496 -33.250549 7.599571 12.418374 -15.541086 -11.560753 -0.604591 -0.702013 -7.982867 -27.587086 8.925104 -43.979896 -37.167842 28.858571 -4.514237 15.386381 22.784522 5.833545 -63.187005 0.102976 -93.376150 77.314852 -97.301808 -6.188789 -10.754735 8.145223 0.208670 0.215266 0.051737 -11.967895 -65.916829 25.964429 91.328971 78.097679 90.904367 -16.293139 -18.781309 -2.327889 -0.251796 -0.489123 -0.082986
-44.333351 50.996185 4.051885 164.370794 -17.153923 -2.777821 3.146769 13.730629 1.726782 0.340954 1.208261 0.060224 0.428891 2.005121 0.149558 2.914148 12.395364 1.148143 2.664396 16.640176 -3.192077 6.054861 -4.651515 -6.854029 5.758758 6.928413 -0.526299 12.881296 -29.335558 -13.619566 42.832641 -42.340842 -32.145903 7.089926 11.688170 -16.732638 -11.634608 -0.584959 -0.683334 -7.827818 -27.510207 8.937156 -43.842020 -37.427449 28.719123 -4.456623 15.249426 22.856243 5.467729 -63.184522 0.291380 -93.285897 77.345909 -97.224274 -6.112913 -10.853133 8.083523 0.183548 0.266399 0.048698 -11.923100 -66.015072 25.860503 91.363589 78.061272 91.050349 -16.259924 -18.718612 -2.325757 -0.261256 -0.527047 -0.092153
-44.338049 51.000719 4.038035 164.425192 -17.144943 -2.834483 3.182175 13.740851 1.764976 0.348693 1.203706 0.056764 0.453827 2.005005 0.142365 2.926447 12.376156 1.151646 2.577045 16.636077 -3.136384 5.921617 -4.660690 -6.777746 5.758265 6.826568 -0.421082 12.837284 -29.182788 -13.495614 41.785274 -41.612660 -31.082110 6.691795 10.812362 -18.583718 -11.715562 -0.562748 -0.658627 -7.679926 -27.435672 8.961979 -43.724733 -37.684454 28.582130 -4.412523 15.148080 22.908714 5.004146 -63.135645 0.575718 -93.056878 77.364281 -97.060161 -6.046654 -11.028562 8.034474 0.169753 0.394164 0.039776 -11.952748 -66.052418 25.852810 91.470060 78.003388 91.168882 -16.206514 -18.612492 -2.265519 -0.411782 -0.603725 -0.147256
-44.345582 51.004555 4.026036 164.482709 -17.120210 -2.864648 3.213174 13.734398 1.771655 0.310137 1.192651 0.069329 0.499295 2.007280 0.126957 2.957898 12.360073 1.148378 2.503727 16.638896 -3.096845 5.775145 -4.673032 -6.675733 5.763796 6.738990 -0.317481 12.814465 -29.042698 -13.401312 41.024807 -41.091989 -30.317718 6.754485 10.072344 -21.077800 -11.734717 -0.496067 -0.709962 -7.644171 -27.397564 9.085417 -43.650214 -37.923730 28.464170 -4.389739 15.082158 22.943039 4.378843 -63.093833 1.020601 -92.673536 77.374346 -96.863489 -6.009197 -11.167570 8.020009 0.145510 0.498020 0.021263 -11.941876 -66.112630 25.794401 91.537299 77.973953 91.269941 -16.257658 -18.547422 -2.222693 -0.431055 -0.657967 -0.163154
-44.349633 51.006926 4.019301 164.543075 -17.073675 -2.911877 3.245449 13.703812 1.794550 0.328746 1.189545 0.061275 0.482542 1.998569 0.132994 2.987306 12.341985 1.146639 2.451397 16.643628 -3.072519 5.613163 -4.682243 -6.550389 5.781741 6.665506 -0.216300 12.799687 -28.913552 -13.323953 40.718537 -40.848266 -29.977022 6.989003 9.524092 -23.592147 -11.771857 -0.443487 -0.731927 -7.574092 -27.354533 9.174492 -43.643606 -38.128033 28.388454 -4.380690 15.046653 22.967505 3.383268 -63.071668 1.853638 -92.070687 77.372464 -96.639826 -6.037863 -11.264158 8.038608 0.121069 0.584456 0.024566 -12.033148 -66.188509 25.826068 91.639519 77.945641 91.391940 -16.275932 -18.478574 -2.184892 -0.465697 -0.712454 -0.186231
-44.340724 51.010303 4.010377 164.630450 -17.069488 -3.033906 3.320334 13.713277 1.880899 0.292775 1.178329 0.074583 0.466366 1.989849 0.139844 3.013048 12.321212 1.146055 2.377111 16.658155 -3.023327 5.481678 -4.692220 -6.459161 5.814831 6.597453 -0.114401 12.775845 -28.783204 -13.242059 40.648481 -40.751810 -29.883033 6.795640 8.971850 -25.579273 -11.806890 -0.394094 -0.745653 -7.504931 -27.313420 9.253025 -43.701052 -38.286174 28.358185 -4.369883 15.034128 22.991160 1.989564 -63.004446 3.088573 -91.480071 77.342622 -96.491663 -6.184325 -11.355706 7.972394 0.261721 0.657504 0.073152 -12.332023 -66.197724 26.044973 91.755368 77.924233 91.517467 -16.252964 -18.418620 -2.168955 -0.514272 -0.722092 -0.214902
-44.332861 51.009938 4.006336 164.714848 -17.046006 -3.166089 3.353358 13.691548 1.986116 0.276773 1.171762 0.080391 0.469489 1.982953 0.139381 3.014264 12.306732 1.150531 2.331079 16.664445 -2.997295 5.344098 -4.696813 -6.356124 5.875747 6.516607 -0.018515 12.725112 -28.634536 -13.134796 40.485253 -40.655526 -29.854080 6.264280 8.415563 -26.860423 -11.810879 -0.353402 -0.770742 -7.463162 -27.273322 9.338646 -43.799500 -38.400704 28.364028 -4.355592 15.037385 23.014814 0.745082 -62.972152 4.206281 -91.052613 77.325253 -96.425847 -6.435579 -11.463419 7.909815 0.482664 0.761910 0.126522 -12.729630 -66.225760 26.342402 91.982662 77.870735 91.705397 -16.059451 -18.298380 -2.115659 -0.642747 -0.794948 -0.295676
